<svg xmlns="http://www.w3.org/2000/svg" fill="none" viewBox="0 0 24 24" stroke="currentColor"><rect width="20" height="20" x="2" y="2" rx="6" fill="#FBF7BA" stroke="#9D1F15" stroke-width="2"/><path d="M8 15c6 0 9-5 9-9v-.5A6.5 6.5 0 0 0 20 3a6.5 6.5 0 0 1-2.36.65A3.28 3.28 0 0 0 19.5 2a6.5 6.5 0 0 1-2.07.79A3.28 3.28 0 0 0 12 5.5c0 .26.03.52.09.77C8.09 6.09 4.54 4.13 2.5 1.5c-.36.6-.57 1.3-.57 2.05 0 1.41.72 2.66 1.81 3.39A3.23 3.23 0 0 1 2 6.1v.04c0 1.97 1.4 3.62 3.26 4-.34.09-.7.14-1.07.14-.26 0-.51-.03-.76-.07.51 1.6 2 2.77 3.76 2.8A6.57 6.57 0 0 1 2 18.58 9.29 9.29 0 0 0 8 20c7.55 0 11.68-6.26 11.68-11.68 0-.18-.01-.36-.02-.54A8.36 8.36 0 0 0 22 3.5c-.66.29-1.36.48-2.1.56A3.28 3.28 0 0 0 20 3z" fill="#9D1F15"/></svg>
